# xmcd
#
# Track frame offsets: 
#        179
#        22616
#        41277
#        54977
#        76447
#        96225
#        109310
#        126957
#
# Disc length: 1944 seconds
#
# Revision: 4
# Processed by: cddbd v1.5.2PL0 Copyright (c) Steve Scherf et al.
# Submitted via: ExactAudioCopyFreeDBPlugin 1.0
#
DISCID=59079608
DTITLE=Johnny Cash - 1960 - Johnny Cash - Ride This Train
DYEAR=1960
DGENRE=Country
TTITLE0=Loading Coal
TTITLE1=Slow Rider
TTITLE2=Lumberjack
TTITLE3=Dorraine of Ponchartrain
TTITLE4=Going to Memphis
TTITLE5=When Papa Played the Dobro
TTITLE6=Boss Jack
TTITLE7=Old Doc Brown
EXTD=
EXTT0=
EXTT1=
EXTT2=
EXTT3=
EXTT4=
EXTT5=
EXTT6=
EXTT7=
PLAYORDER=
